<svg width="28" height="28" viewBox="0 0 28 28" fill="none" xmlns="http://www.w3.org/2000/svg">
<g clip-path="url(#clip0_278_69)">
<rect width="28" height="28" rx="5" fill="#FF7D7D"/>
<path d="M7 12.75C6.30964 12.75 5.75 13.3096 5.75 14C5.75 14.6904 6.30964 15.25 7 15.25V12.75ZM22.8839 14.8839C23.372 14.3957 23.372 13.6043 22.8839 13.1161L14.9289 5.16117C14.4408 4.67301 13.6493 4.67301 13.1612 5.16117C12.673 5.64932 12.673 6.44078 13.1612 6.92893L20.2322 14L13.1612 21.0711C12.673 21.5592 12.673 22.3507 13.1612 22.8388C13.6493 23.327 14.4408 23.327 14.9289 22.8388L22.8839 14.8839ZM7 15.25H22V12.75H7V15.25Z" fill="white"/>
</g>
<defs>
<clipPath id="clip0_278_69">
<rect width="28" height="28" rx="5" fill="white"/>
</clipPath>
</defs>
</svg>
